<svg width="39" height="44" viewBox="0 0 39 44" fill="none" xmlns="http://www.w3.org/2000/svg">
<path d="M32.4547 8.76875C30.0984 7.23281 28.3969 4.77344 27.8672 1.90781C27.7531 1.28906 27.6891 0.651563 27.6891 0H20.1672L20.1547 30.1438C20.0281 33.5188 17.25 36.2281 13.8438 36.2281C12.7859 36.2281 11.7891 35.9641 10.9109 35.5016C8.89844 34.4422 7.52187 32.3328 7.52187 29.9047C7.52187 26.4188 10.3578 23.5813 13.8438 23.5813C14.4953 23.5813 15.1188 23.6891 15.7094 23.8734V16.1953C15.0984 16.1125 14.4781 16.0594 13.8438 16.0594C6.20938 16.0594 0 22.2703 0 29.9031C0 34.5875 2.34062 38.7313 5.91094 41.2375C8.15937 42.8156 10.8953 43.7469 13.8453 43.7469C21.4797 43.7469 27.6891 37.5359 27.6891 29.9031V14.6188C30.6391 16.7359 34.2531 17.9844 38.1531 17.9844V10.4625C36.0516 10.4625 34.0953 9.83906 32.4547 8.76875Z" fill="#534C87"/>
</svg>
