<svg width="44" height="44" viewBox="0 0 44 44" fill="none" xmlns="http://www.w3.org/2000/svg">
<path d="M12.815 0.155416C10.4869 0.264791 8.89786 0.636667 7.50879 1.18198C6.07129 1.74292 4.85254 2.49448 3.63848 3.71167C2.42598 4.92885 1.67911 6.14917 1.12286 7.58823C0.583794 8.98042 0.219731 10.571 0.116606 12.9007C0.013481 15.2289 -0.00839394 15.9789 0.00254356 21.9179C0.0134811 27.857 0.0400435 28.6023 0.152544 30.9367C0.263481 33.2632 0.633794 34.8523 1.17911 36.2429C1.74004 37.6804 2.49161 38.8992 3.70879 40.1132C4.92598 41.3257 6.14473 42.071 7.58848 42.6289C8.97911 43.1664 10.5713 43.5335 12.8994 43.6351C15.2275 43.7367 15.9775 43.7601 21.9166 43.7492C27.8557 43.7382 28.6025 43.7117 30.9369 43.6007C33.2713 43.4898 34.851 43.1179 36.2416 42.5742C37.6791 42.0117 38.8994 41.2617 40.1119 40.0429C41.3244 38.8242 42.0713 37.6039 42.626 36.1632C43.165 34.7726 43.5307 33.1804 43.6322 30.8539C43.7338 28.5195 43.7588 27.7742 43.7463 21.8335C43.7338 15.8929 43.7088 15.1492 43.5979 12.8164C43.4869 10.4835 43.1166 8.89917 42.5713 7.50854C42.0088 6.07104 41.2588 4.85229 40.0416 3.63823C38.8244 2.42417 37.6025 1.67885 36.1619 1.12417C34.7697 0.585104 33.1791 0.217916 30.851 0.117916C28.5229 0.0179162 27.7729 -0.0086461 21.8322 0.0022914C15.8916 0.0132289 15.1479 0.0397913 12.815 0.152291M13.0713 39.6976C10.9385 39.6054 9.78067 39.2507 9.00879 38.9539C7.98692 38.5601 7.25879 38.0835 6.49004 37.3226C5.72129 36.5617 5.24786 35.8304 4.84942 34.8101C4.54942 34.0382 4.18848 32.882 4.08848 30.7492C3.98067 28.4445 3.95723 27.7523 3.94473 21.9117C3.93223 16.071 3.95411 15.3804 4.05567 13.0742C4.14629 10.9429 4.50254 9.78354 4.79942 9.01167C5.19317 7.98823 5.66817 7.26167 6.43067 6.49292C7.19317 5.72417 7.92286 5.25073 8.94317 4.85229C9.71348 4.55073 10.8713 4.19292 13.0025 4.09135C15.3088 3.98198 16.001 3.9601 21.84 3.9476C27.6791 3.9351 28.3729 3.95698 30.6807 4.05854C32.8119 4.15073 33.9713 4.50385 34.7416 4.80229C35.7635 5.19604 36.4916 5.66948 37.2604 6.43354C38.0291 7.1976 38.5025 7.92417 38.9025 8.9476C39.2041 9.71635 39.5619 10.8726 39.6619 13.0054C39.7713 15.3117 39.7963 16.0039 39.8072 21.8429C39.8182 27.682 39.7979 28.3757 39.6963 30.6804C39.6025 32.8132 39.2494 33.971 38.9525 34.7445C38.5588 35.7664 38.0838 36.4945 37.3197 37.2632C36.5557 38.032 35.8275 38.5054 34.8072 38.9039C34.0369 39.2039 32.8791 39.5632 30.7494 39.6648C28.4432 39.7726 27.751 39.796 21.9104 39.8085C16.0697 39.821 15.3775 39.7976 13.0713 39.6976ZM30.9041 10.1851C30.9072 11.6351 32.0838 12.8085 33.5338 12.8054C34.9838 12.8023 36.1572 11.6257 36.1541 10.1757C36.151 8.72573 34.9744 7.55229 33.5244 7.55542C32.0744 7.55854 30.9025 8.7351 30.9041 10.1851ZM10.6432 21.8976C10.6557 28.1007 15.6932 33.1195 21.8963 33.107C28.0994 33.0945 33.1197 28.057 33.1088 21.8539C33.0963 15.6507 28.0572 10.6304 21.8541 10.6429C15.651 10.6554 10.6307 15.6945 10.6432 21.8976ZM14.5854 21.8898C14.5775 17.8632 17.8354 14.5914 21.8635 14.5835C25.89 14.5757 29.1619 17.8335 29.1697 21.8617C29.1775 25.8882 25.9197 29.1601 21.8916 29.1679C17.865 29.1757 14.5932 25.9195 14.5854 21.8929" fill="#534C87"/>
</svg>
