<svg width="44" height="44" viewBox="0 0 44 44" fill="none" xmlns="http://www.w3.org/2000/svg">
<path d="M21.875 0C9.79375 0 0 9.79375 0 21.875C0 32.1344 7.0625 40.7422 16.5906 43.1063V28.5594H12.0797V21.875H16.5906V18.9953C16.5906 11.55 19.9594 8.09844 27.2703 8.09844C28.6562 8.09844 31.0469 8.37031 32.025 8.64219V14.7016C31.5094 14.6469 30.6125 14.6203 29.4984 14.6203C25.9109 14.6203 24.525 15.9797 24.525 19.5109V21.875H31.6703L30.4422 28.5594H24.525V43.5891C35.3563 42.2812 43.75 33.0578 43.75 21.875C43.75 9.79375 33.9562 0 21.875 0Z" fill="#534C87"/>
</svg>
