<svg width="44" height="32" viewBox="0 0 44 32" fill="none" xmlns="http://www.w3.org/2000/svg">
<path d="M43.0828 5.00625C42.575 3.10313 41.0781 1.60625 39.175 1.09844C35.7219 0.171875 22 0.171875 22 0.171875C22 0.171875 8.27812 0.171875 4.825 1.09844C2.92188 1.60625 1.425 3.10313 0.917188 5.00625C0 8.45938 0 15.6719 0 15.6719C0 15.6719 0 22.8844 0.917188 26.3375C1.425 28.2406 2.92188 29.7375 4.825 30.2453C8.27812 31.1719 22 31.1719 22 31.1719C22 31.1719 35.7219 31.1719 39.175 30.2453C41.0781 29.7375 42.575 28.2406 43.0828 26.3375C44 22.8844 44 15.6719 44 15.6719C44 15.6719 44 8.45938 43.0828 5.00625ZM17.4688 22.3094V9.03438L29.0125 15.6719L17.4688 22.3094Z" fill="#534C87"/>
</svg>
